<?xml version="1.0" encoding="utf-8"?>
<!-- Generator: Adobe Illustrator 19.0.0, SVG Export Plug-In . SVG Version: 6.00 Build 0)  -->
<svg version="1.1" xmlns="http://www.w3.org/2000/svg" xmlns:xlink="http://www.w3.org/1999/xlink" x="0px" y="0px"
	 viewBox="-49 141 512 512" style="enable-background:new -49 141 512 512;" xml:space="preserve">
<style type="text/css">
	.st0{display:none;}
	.st1{display:inline;fill:#425661;}
	.st2{display:inline;}
	.st3{fill:#425661;}
</style>
<g id="Layer_1" class="st0">
	<path class="st1" d="M207,148C69.5,148-42,259.5-42,397c0,137.5,111.5,249,249,249s249-111.5,249-249C456,259.5,344.5,148,207,148z
		 M207,626.1C80.7,626.1-22.1,523.3-22.1,397S80.7,167.9,207,167.9c126.3,0,229.1,102.8,229.1,229.1
		C436.1,523.3,333.3,626.1,207,626.1z"/>
	<g class="st2">
		<rect x="195" y="280.3" class="st3" width="23.7" height="30.4"/>
		<rect x="195" y="339.5" class="st3" width="23.7" height="182.5"/>
	</g>
</g>
<g id="Layer_2">
	<path class="st3" d="M207,148C69.5,148-42,259.5-42,397c0,137.5,111.5,249,249,249s249-111.5,249-249C456,259.5,344.5,148,207,148z
		 M207,626.1C80.7,626.1-22.1,523.3-22.1,397S80.7,167.9,207,167.9c126.3,0,229.1,102.8,229.1,229.1
		C436.1,523.3,333.3,626.1,207,626.1z"/>
	<path class="st3" d="M207,148C69.5,148-42,259.5-42,397c0,137.5,111.5,249,249,249s249-111.5,249-249C456,259.5,344.5,148,207,148z
		 M207,626.1C80.7,626.1-22.1,523.3-22.1,397S80.7,167.9,207,167.9c126.3,0,229.1,102.8,229.1,229.1
		C436.1,523.3,333.3,626.1,207,626.1z"/>
	<path class="st3" d="M348,298h-48.5l0-17.6h-15.1V298h-69.9v-17.6h-15.1l0,17.6h-69.9l0-17.6h-15.1V298H66c-4.2,0-7.6,3.4-7.6,7.6
		v200.5c0,4.2,3.4,7.6,7.6,7.6h282.2c2,0,3.9-0.8,5.4-2.2c1.4-1.4,2.2-3.3,2.1-5.3V305.6C355.6,301.4,352.2,298,348,298z
		 M73.5,370.9h267v127.6h-267V370.9z M129.6,330.5l0-17.4h69.9l0,17.4l15.1,0v-17.4h69.9v17.4l15.1,0l0-17.4h41v42.6h-267v-42.6h41
		v17.4L129.6,330.5z"/>
</g>
</svg>
