<?xml version="1.0" encoding="utf-8"?>
<!-- Generator: Adobe Illustrator 19.0.0, SVG Export Plug-In . SVG Version: 6.00 Build 0)  -->
<svg version="1.1" id="Layer_1" xmlns="http://www.w3.org/2000/svg" xmlns:xlink="http://www.w3.org/1999/xlink" x="0px" y="0px"
	 viewBox="-49 141 512 512" style="enable-background:new -49 141 512 512;" xml:space="preserve">
<style type="text/css">
	.st0{fill:#425661;}
</style>
<g>
	<path class="st0" d="M452.5,602.5h-491c-5.8,0-10.5-4.7-10.5-10.5V243.1c0-5.8,4.7-10.5,10.5-10.5h490.8c5.8,0,10.5,4.7,10.5,10.5
		V592C463,597.8,458.3,602.5,452.5,602.5z M-27.9,581.4h469.7l0,0V253.7l0,0H-27.9l0,0L-27.9,581.4L-27.9,581.4z"/>
	<polygon class="st0" points="-38.5,333 452.4,333 452.4,333 452.4,354.1 452.4,354.1 -38.5,354.1 -38.5,354.1 -38.5,333 	"/>
	<polygon class="st0" points="48.7,283.9 48.7,202 69.7,202 69.7,283.9 	"/>
	<polygon class="st0" points="196.5,283.9 196.5,202 217.5,202 217.5,283.9 	"/>
	<polygon class="st0" points="344.3,283.9 344.3,202 365.3,202 365.3,283.9 	"/>
</g>
</svg>
