<?xml version="1.0" encoding="utf-8"?>
<!-- Generator: Adobe Illustrator 19.0.0, SVG Export Plug-In . SVG Version: 6.00 Build 0)  -->
<svg version="1.1" xmlns="http://www.w3.org/2000/svg" xmlns:xlink="http://www.w3.org/1999/xlink" x="0px" y="0px"
	 viewBox="-49 141 512 512" style="enable-background:new -49 141 512 512;" xml:space="preserve">
<style type="text/css">
	.st0{fill:#425661;}
	.st1{display:none;}
	.st2{display:inline;fill:#425661;}
	.st3{display:inline;}
</style>
<g id="Layer_1">
	<path class="st0" d="M207,148C69.5,148-42,259.5-42,397c0,137.5,111.5,249,249,249s249-111.5,249-249C456,259.5,344.5,148,207,148z
		 M207,626.1C80.7,626.1-22.1,523.3-22.1,397S80.7,167.9,207,167.9c126.3,0,229.1,102.8,229.1,229.1
		C436.1,523.3,333.3,626.1,207,626.1z"/>
	<g>
		<rect x="195" y="280.3" class="st0" width="23.7" height="30.4"/>
		<rect x="195" y="339.5" class="st0" width="23.7" height="182.5"/>
	</g>
</g>
<g id="Layer_2" class="st1">
	<path class="st2" d="M207,148C69.5,148-42,259.5-42,397c0,137.5,111.5,249,249,249s249-111.5,249-249C456,259.5,344.5,148,207,148z
		 M207,626.1C80.7,626.1-22.1,523.3-22.1,397S80.7,167.9,207,167.9c126.3,0,229.1,102.8,229.1,229.1
		C436.1,523.3,333.3,626.1,207,626.1z"/>
	<path class="st2" d="M207,148C69.5,148-42,259.5-42,397c0,137.5,111.5,249,249,249s249-111.5,249-249C456,259.5,344.5,148,207,148z
		 M207,626.1C80.7,626.1-22.1,523.3-22.1,397S80.7,167.9,207,167.9c126.3,0,229.1,102.8,229.1,229.1
		C436.1,523.3,333.3,626.1,207,626.1z"/>
	<g class="st3">
		<path class="st0" d="M348.1,512.1H66c-3.3,0-6.1-2.7-6.1-6.1V305.6c0-3.3,2.7-6.1,6.1-6.1H348c3.3,0,6.1,2.7,6.1,6.1v200.5
			C354.2,509.4,351.4,512.1,348.1,512.1z M72,500h270l0,0V311.7l0,0H72l0,0L72,500L72,500z"/>
		<polygon class="st0" points="66,357.2 348,357.2 348.1,357.3 348.1,369.4 348,369.4 66,369.4 65.9,369.4 65.9,357.3 		"/>
		<rect x="116.1" y="282" class="st0" width="12.1" height="47.1"/>
		<rect x="201" y="282" class="st0" width="12.1" height="47.1"/>
		<rect x="285.9" y="282" class="st0" width="12.1" height="47.1"/>
	</g>
</g>
</svg>
